<?xml version="1.0" encoding="utf-8"?>
<svg viewBox="210.089 135.449 128.189 26.172" xmlns="http://www.w3.org/2000/svg">
  <path d="M 226.48600451660155 144.60899853515625 L 223.61700451660155 155.21099853515625 L 220.02600451660157 155.21099853515625 L 218.35400451660155 148.33299853515626 L 216.62500451660156 155.21099853515625 L 213.05300451660156 155.21099853515625 L 210.16500451660156 144.60899853515625 L 213.41400451660155 144.60899853515625 L 214.91500451660156 152.18999853515626 L 216.70100451660156 144.60899853515625 L 220.14000451660155 144.60899853515625 L 221.94500451660156 152.15199853515625 L 223.42700451660156 144.60899853515625 Z M 237.70180041503906 149.73899853515624 Q 237.70180041503906 150.19499853515626 237.64480041503907 150.68899853515626 L 230.29180041503906 150.68899853515626 Q 230.36780041503906 151.67699853515626 230.92830041503908 152.19949853515624 Q 231.48880041503907 152.72199853515625 232.30580041503907 152.72199853515625 Q 233.52180041503905 152.72199853515625 233.99680041503908 151.69599853515626 L 237.45480041503907 151.69599853515626 Q 237.18880041503905 152.74099853515625 236.49530041503905 153.57699853515626 Q 235.80180041503905 154.41299853515625 234.75680041503907 154.88799853515624 Q 233.71180041503905 155.36299853515624 232.41980041503905 155.36299853515624 Q 230.86180041503906 155.36299853515624 229.64580041503908 154.69799853515624 Q 228.42980041503907 154.03299853515625 227.74580041503907 152.79799853515624 Q 227.06180041503907 151.56299853515625 227.06180041503907 149.90999853515626 Q 227.06180041503907 148.25699853515624 227.73630041503907 147.02199853515626 Q 228.41080041503906 145.78699853515624 229.62680041503907 145.12199853515625 Q 230.84280041503905 144.45699853515626 232.41980041503905 144.45699853515626 Q 233.95880041503906 144.45699853515626 235.15580041503907 145.10299853515625 Q 236.35280041503907 145.74899853515626 237.02730041503906 146.94599853515626 Q 237.70180041503906 148.14299853515624 237.70180041503906 149.73899853515624 Z M 234.37680041503907 148.88399853515625 Q 234.37680041503907 148.04799853515624 233.80680041503905 147.55399853515624 Q 233.23680041503906 147.05999853515624 232.38180041503907 147.05999853515624 Q 231.56480041503906 147.05999853515624 231.00430041503907 147.53499853515626 Q 230.44380041503905 148.00999853515626 230.31080041503907 148.88399853515625 Z M 238.7450126953125 149.89099853515626 Q 238.7450126953125 148.25699853515624 239.3625126953125 147.02199853515626 Q 239.9800126953125 145.78699853515624 241.0440126953125 145.12199853515625 Q 242.1080126953125 144.45699853515626 243.4190126953125 144.45699853515626 Q 244.5400126953125 144.45699853515626 245.3855126953125 144.91299853515625 Q 246.2310126953125 145.36899853515624 246.6870126953125 146.10999853515625 L 246.6870126953125 144.60899853515625 L 249.9360126953125 144.60899853515625 L 249.9360126953125 155.21099853515625 L 246.6870126953125 155.21099853515625 L 246.6870126953125 153.70999853515625 Q 246.2120126953125 154.45099853515626 245.3665126953125 154.90699853515625 Q 244.5210126953125 155.36299853515624 243.4000126953125 155.36299853515624 Q 242.1080126953125 155.36299853515624 241.0440126953125 154.68849853515624 Q 239.9800126953125 154.01399853515625 239.3625126953125 152.76949853515626 Q 238.7450126953125 151.52499853515624 238.7450126953125 149.89099853515626 Z M 246.6870126953125 149.90999853515626 Q 246.6870126953125 148.69399853515625 246.0125126953125 147.99099853515625 Q 245.3380126953125 147.28799853515625 244.3690126953125 147.28799853515625 Q 243.4000126953125 147.28799853515625 242.7255126953125 147.98149853515625 Q 242.0510126953125 148.67499853515625 242.0510126953125 149.89099853515626 Q 242.0510126953125 151.10699853515624 242.7255126953125 151.81949853515624 Q 243.4000126953125 152.53199853515625 244.3690126953125 152.53199853515625 Q 245.3380126953125 152.53199853515625 246.0125126953125 151.82899853515624 Q 246.6870126953125 151.12599853515624 246.6870126953125 149.90999853515626 Z M 258.20272265625 152.45599853515625 L 258.20272265625 155.21099853515625 L 256.54972265625 155.21099853515625 Q 254.78272265625 155.21099853515625 253.79472265625 154.34649853515626 Q 252.80672265625 153.48199853515624 252.80672265625 151.52499853515624 L 252.80672265625 147.30699853515625 L 251.51472265625 147.30699853515625 L 251.51472265625 144.60899853515625 L 252.80672265625 144.60899853515625 L 252.80672265625 142.02499853515624 L 256.05572265625 142.02499853515624 L 256.05572265625 144.60899853515625 L 258.18372265625 144.60899853515625 L 258.18372265625 147.30699853515625 L 256.05572265625 147.30699853515625 L 256.05572265625 151.56299853515625 Q 256.05572265625 152.03799853515625 256.28372265625 152.24699853515625 Q 256.51172265625 152.45599853515625 257.04372265625 152.45599853515625 Z M 266.50417358398437 144.49499853515624 Q 268.3281735839844 144.49499853515624 269.43017358398436 145.70149853515625 Q 270.5321735839844 146.90799853515625 270.5321735839844 149.01699853515626 L 270.5321735839844 155.21099853515625 L 267.30217358398437 155.21099853515625 L 267.30217358398437 149.45399853515624 Q 267.30217358398437 148.38999853515625 266.7511735839844 147.80099853515625 Q 266.2001735839844 147.21199853515625 265.26917358398435 147.21199853515625 Q 264.33817358398437 147.21199853515625 263.7871735839844 147.80099853515625 Q 263.2361735839844 148.38999853515625 263.2361735839844 149.45399853515624 L 263.2361735839844 155.21099853515625 L 259.9871735839844 155.21099853515625 L 259.9871735839844 141.15099853515625 L 263.2361735839844 141.15099853515625 L 263.2361735839844 146.03399853515626 Q 263.73017358398437 145.33099853515625 264.5851735839844 144.91299853515625 Q 265.44017358398435 144.49499853515624 266.50417358398437 144.49499853515624 Z M 282.7785063476563 149.73899853515624 Q 282.7785063476563 150.19499853515626 282.72150634765626 150.68899853515626 L 275.36850634765625 150.68899853515626 Q 275.4445063476563 151.67699853515626 276.00500634765626 152.19949853515624 Q 276.56550634765625 152.72199853515625 277.38250634765626 152.72199853515625 Q 278.59850634765627 152.72199853515625 279.07350634765623 151.69599853515626 L 282.53150634765626 151.69599853515626 Q 282.26550634765624 152.74099853515625 281.57200634765627 153.57699853515626 Q 280.87850634765624 154.41299853515625 279.8335063476562 154.88799853515624 Q 278.78850634765627 155.36299853515624 277.49650634765624 155.36299853515624 Q 275.93850634765624 155.36299853515624 274.72250634765624 154.69799853515624 Q 273.5065063476562 154.03299853515625 272.82250634765626 152.79799853515624 Q 272.13850634765623 151.56299853515625 272.13850634765623 149.90999853515626 Q 272.13850634765623 148.25699853515624 272.81300634765626 147.02199853515626 Q 273.4875063476562 145.78699853515624 274.70350634765623 145.12199853515625 Q 275.91950634765624 144.45699853515626 277.49650634765624 144.45699853515626 Q 279.0355063476562 144.45699853515626 280.2325063476562 145.10299853515625 Q 281.42950634765623 145.74899853515626 282.10400634765625 146.94599853515626 Q 282.7785063476563 148.14299853515624 282.7785063476563 149.73899853515624 Z M 279.45350634765623 148.88399853515625 Q 279.45350634765623 148.04799853515624 278.88350634765624 147.55399853515624 Q 278.31350634765624 147.05999853515624 277.4585063476562 147.05999853515624 Q 276.6415063476563 147.05999853515624 276.0810063476562 147.53499853515626 Q 275.52050634765624 148.00999853515626 275.38750634765626 148.88399853515625 Z M 287.7317790527344 146.37599853515624 Q 288.3017790527344 145.50199853515625 289.15677905273435 144.99849853515624 Q 290.01177905273437 144.49499853515624 291.0567790527344 144.49499853515624 L 291.0567790527344 147.93399853515626 L 290.16377905273436 147.93399853515626 Q 288.94777905273435 147.93399853515626 288.3397790527344 148.45649853515624 Q 287.7317790527344 148.97899853515625 287.7317790527344 150.28999853515626 L 287.7317790527344 155.21099853515625 L 284.4827790527344 155.21099853515625 L 284.4827790527344 144.60899853515625 L 287.7317790527344 144.60899853515625 L 287.7317790527344 146.37599853515624 Z M 294.1328449707031 155.36299853515624 Q 293.27784497070314 155.36299853515624 292.7363449707031 154.85949853515626 Q 292.1948449707031 154.35599853515626 292.1948449707031 153.61499853515625 Q 292.1948449707031 152.85499853515626 292.7363449707031 152.34199853515625 Q 293.27784497070314 151.82899853515624 294.1328449707031 151.82899853515624 Q 294.9688449707031 151.82899853515624 295.5103449707031 152.34199853515625 Q 296.05184497070314 152.85499853515626 296.05184497070314 153.61499853515625 Q 296.05184497070314 154.35599853515626 295.5103449707031 154.85949853515626 Q 294.9688449707031 155.36299853515624 294.1328449707031 155.36299853515624 Z" transform="matrix(1.074321985244751, 0, 0, 1, -15.614192962646484, 0)" style="fill: rgb(255, 255, 255); white-space: pre;"/>
  <path d="M 302.0026472167969 146.59299853515626 Q 303.52164721679685 146.59299853515626 304.48264721679686 147.53074853515625 Q 305.4436472167969 148.46849853515624 305.4436472167969 150.25099853515624 L 305.4436472167969 155.21099853515625 L 304.37414721679687 155.21099853515625 L 304.37414721679687 150.37499853515624 Q 304.37414721679687 148.99549853515626 303.68439721679687 148.26699853515626 Q 302.99464721679686 147.53849853515624 301.8011472167969 147.53849853515624 Q 300.57664721679686 147.53849853515624 299.84814721679686 148.31349853515624 Q 299.11964721679686 149.08849853515625 299.11964721679686 150.59199853515625 L 299.11964721679686 155.21099853515625 L 298.0346472167969 155.21099853515625 L 298.0346472167969 146.74799853515626 L 299.11964721679686 146.74799853515626 L 299.11964721679686 148.18949853515625 Q 299.5226472167969 147.41449853515624 300.2821472167969 147.00374853515626 Q 301.0416472167969 146.59299853515626 302.0026472167969 146.59299853515626 Z M 311.54038623046876 155.33499853515625 Q 310.3468862304687 155.33499853515625 309.39363623046876 154.80024853515624 Q 308.44038623046873 154.26549853515624 307.8901362304687 153.28124853515624 Q 307.3398862304688 152.29699853515626 307.3398862304688 150.97949853515624 Q 307.3398862304688 149.66199853515624 307.89788623046877 148.67774853515624 Q 308.45588623046876 147.69349853515624 309.4168862304688 147.15874853515623 Q 310.37788623046873 146.62399853515626 311.57138623046876 146.62399853515626 Q 312.76488623046873 146.62399853515626 313.73363623046873 147.15874853515623 Q 314.70238623046873 147.69349853515624 315.25263623046874 148.67774853515624 Q 315.80288623046874 149.66199853515624 315.80288623046874 150.97949853515624 Q 315.80288623046874 152.28149853515626 315.24488623046875 153.27349853515625 Q 314.68688623046876 154.26549853515624 313.71038623046877 154.80024853515624 Q 312.7338862304687 155.33499853515625 311.54038623046876 155.33499853515625 Z M 311.54038623046876 154.38949853515626 Q 312.37738623046874 154.38949853515626 313.09038623046877 154.00974853515626 Q 313.80338623046873 153.62999853515626 314.24513623046874 152.86274853515624 Q 314.68688623046876 152.09549853515625 314.68688623046876 150.97949853515624 Q 314.68688623046876 149.86349853515625 314.25288623046873 149.09624853515626 Q 313.81888623046876 148.32899853515624 313.10588623046874 147.94924853515624 Q 312.3928862304688 147.56949853515624 311.55588623046873 147.56949853515624 Q 310.71888623046874 147.56949853515624 310.0058862304688 147.94924853515624 Q 309.29288623046875 148.32899853515624 308.86663623046877 149.09624853515626 Q 308.44038623046873 149.86349853515625 308.44038623046873 150.97949853515624 Q 308.44038623046873 152.09549853515625 308.86663623046877 152.86274853515624 Q 309.29288623046875 153.62999853515626 309.99813623046873 154.00974853515626 Q 310.70338623046877 154.38949853515626 311.54038623046876 154.38949853515626 Z M 328.9326538085937 146.74799853515626 L 326.28215380859376 155.21099853515625 L 325.1971538085937 155.21099853515625 L 322.85665380859376 148.11199853515626 L 320.51615380859374 155.21099853515625 L 319.41565380859373 155.21099853515625 L 316.76515380859377 146.74799853515626 L 317.8656538085938 146.74799853515626 L 319.9736538085937 154.11049853515624 L 322.34515380859375 146.74799853515626 L 323.43015380859373 146.74799853515626 L 325.77065380859375 154.12599853515624 L 327.8631538085938 146.74799853515626 Z" transform="matrix(1.074321985244751, 0, 0, 1, -15.614192962646484, 0)" style="fill: rgb(255, 255, 255); white-space: pre;"/>
</svg>